<svg width="418" height="108" viewBox="0 0 418 108" fill="none" xmlns="http://www.w3.org/2000/svg">
<path d="M8.96591 99.5455H32.4886V64.2614H32.8295C35.5568 70.9091 41.8636 75.8523 51.0682 75.8523C65.0455 75.8523 76.8068 64.9432 76.8068 42.2727C76.8068 18.5795 64.1932 8.69318 51.2386 8.69318C41.5227 8.69318 35.3864 14.3182 32.8295 20.9659H32.3182V9.54545H8.96591V99.5455ZM31.9773 42.2727C31.9773 32.5568 35.8977 26.7614 42.375 26.7614C48.8523 26.7614 52.6023 32.5568 52.6023 42.2727C52.6023 51.9886 48.8523 57.7841 42.375 57.7841C35.8977 57.7841 31.9773 51.8182 31.9773 42.2727ZM129.104 46.3636C129.147 52.8409 125.397 56.7614 119.559 56.7614C113.636 56.7614 110.227 52.8409 110.184 46.3636V9.54545H86.6612V51.3068C86.7038 65.625 95.7379 75.8523 109.502 75.8523C119.261 75.8523 126.761 70.9091 129.616 62.5568H130.298V75H152.627V9.54545H129.104V46.3636ZM178.909 99.5455C195.358 99.5455 203.071 91.2784 206.693 80.4545L230.557 9.54545H205.841L195.102 54.8864H194.42L183.852 9.54545H159.307L182.318 77.8977L181.807 79.0909C180.23 82.7131 175.67 82.5852 169.875 80.5398L164.761 97.2443C168.426 98.6932 173.497 99.5455 178.909 99.5455ZM237.247 75H260.77V36.8182C260.77 31.108 263.753 27.6136 268.611 27.6136C273.469 27.6136 276.622 31.108 276.622 36.8182V75H299.122V36.8182C299.122 31.108 302.105 27.6136 306.963 27.6136C311.821 27.6136 314.974 31.108 314.974 36.8182V75H338.497V30.8523C338.497 17.429 329.889 8.69318 317.361 8.69318C307.645 8.69318 299.804 13.9773 297.588 21.9886H296.906C295.543 13.9773 288.213 8.69318 279.009 8.69318C269.932 8.69318 262.986 13.8068 260.259 21.9886H259.577V9.54545H237.247V75ZM368.337 76.0227C376.86 76.0227 383.295 73.125 387.258 65.7955H387.769V75H409.758V30.1705C409.758 18.0682 398.295 8.69318 379.587 8.69318C360.028 8.69318 350.397 18.9205 349.587 30.8523H371.235C371.789 26.804 374.772 24.8864 379.246 24.8864C383.337 24.8864 386.235 26.7614 386.235 30.1705V30.3409C386.235 34.1335 382.059 35.3267 371.065 36.1364C357.556 37.1165 347.031 42.571 347.031 56.9318C347.031 69.9716 355.809 76.0227 368.337 76.0227ZM376.008 61.1932C372.002 61.1932 369.19 59.233 369.19 55.5682C369.19 52.2017 371.576 49.6023 377.031 48.75C380.781 48.1534 383.934 47.3864 386.406 46.3636V51.8182C386.406 57.7841 381.335 61.1932 376.008 61.1932Z" fill="white"/>
<path d="M8.96591 99.5455H0.965909V107.545H8.96591V99.5455ZM32.4886 99.5455V107.545H40.4886V99.5455H32.4886ZM32.4886 64.2614V56.2614H24.4886V64.2614H32.4886ZM32.8295 64.2614L40.2309 61.2249L38.1946 56.2614H32.8295V64.2614ZM32.8295 20.9659V28.9659H38.3239L40.2963 23.8377L32.8295 20.9659ZM32.3182 20.9659H24.3182V28.9659H32.3182V20.9659ZM32.3182 9.54545H40.3182V1.54545H32.3182V9.54545ZM8.96591 9.54545V1.54545H0.965909V9.54545H8.96591ZM8.96591 107.545H32.4886V91.5455H8.96591V107.545ZM40.4886 99.5455V64.2614H24.4886V99.5455H40.4886ZM32.4886 72.2614H32.8295V56.2614H32.4886V72.2614ZM25.4282 67.2978C29.3773 76.9238 38.5917 83.8523 51.0682 83.8523V67.8523C45.1355 67.8523 41.7363 64.8944 40.2309 61.2249L25.4282 67.2978ZM51.0682 83.8523C60.2557 83.8523 68.9884 80.2028 75.2958 72.7199C81.516 65.3405 84.8068 54.9375 84.8068 42.2727H68.8068C68.8068 52.2784 66.217 58.6651 63.0621 62.4079C59.9946 66.0472 55.8579 67.8523 51.0682 67.8523V83.8523ZM84.8068 42.2727C84.8068 29.0388 81.2708 18.5809 74.8911 11.3183C68.4672 4.00544 59.8092 0.693182 51.2386 0.693182V16.6932C55.6227 16.6932 59.7487 18.3241 62.8703 21.8777C66.036 25.4816 68.8068 31.8135 68.8068 42.2727H84.8068ZM51.2386 0.693182C37.8549 0.693182 28.9741 8.70463 25.3628 18.0941L40.2963 23.8377C41.7986 19.9317 45.1906 16.6932 51.2386 16.6932V0.693182ZM32.8295 12.9659H32.3182V28.9659H32.8295V12.9659ZM40.3182 20.9659V9.54545H24.3182V20.9659H40.3182ZM32.3182 1.54545H8.96591V17.5455H32.3182V1.54545ZM0.965909 9.54545V99.5455H16.9659V9.54545H0.965909ZM39.9773 42.2727C39.9773 38.3341 40.7957 36.2159 41.3872 35.3357C41.6456 34.9512 41.8166 34.8593 41.8393 34.8469C41.8534 34.8393 41.9825 34.7614 42.375 34.7614V18.7614C36.3703 18.7614 31.3254 21.6224 28.1071 26.4115C25.1191 30.858 23.9773 36.4954 23.9773 42.2727H39.9773ZM42.375 34.7614C42.5855 34.7614 42.7092 34.7845 42.7659 34.7984C42.82 34.8117 42.8407 34.8232 42.8469 34.8266C42.8537 34.8303 42.8845 34.8476 42.9408 34.9011C42.9994 34.9569 43.1006 35.0667 43.2285 35.2617C43.8033 36.1379 44.6023 38.2727 44.6023 42.2727H60.6023C60.6023 36.5568 59.5262 30.9359 56.6068 26.4855C53.436 21.652 48.4084 18.7614 42.375 18.7614V34.7614ZM44.6023 42.2727C44.6023 46.2727 43.8033 48.4075 43.2285 49.2838C43.1006 49.4787 42.9994 49.5886 42.9408 49.6443C42.8845 49.6979 42.8537 49.7151 42.8469 49.7189C42.8407 49.7223 42.82 49.7337 42.7659 49.747C42.7092 49.7609 42.5855 49.7841 42.375 49.7841V65.7841C48.4084 65.7841 53.436 62.8935 56.6068 58.06C59.5262 53.6095 60.6023 47.9886 60.6023 42.2727H44.6023ZM42.375 49.7841C42.0224 49.7841 41.911 49.714 41.8955 49.7054C41.8655 49.6888 41.678 49.582 41.4036 49.1704C40.7852 48.2429 39.9773 46.0993 39.9773 42.2727H23.9773C23.9773 47.9916 25.1295 53.6037 28.0908 58.0456C31.2647 62.8064 36.2869 65.7841 42.375 65.7841V49.7841ZM129.104 46.3636H121.104V46.39L121.105 46.4163L129.104 46.3636ZM110.184 46.3636H102.184V46.39L102.184 46.4163L110.184 46.3636ZM110.184 9.54545H118.184V1.54545H110.184V9.54545ZM86.6612 9.54545V1.54545H78.6612V9.54545H86.6612ZM86.6612 51.3068H78.6612V51.3187L78.6613 51.3306L86.6612 51.3068ZM129.616 62.5568V54.5568H123.896L122.046 59.9691L129.616 62.5568ZM130.298 62.5568H138.298V54.5568H130.298V62.5568ZM130.298 75H122.298V83H130.298V75ZM152.627 75V83H160.627V75H152.627ZM152.627 9.54545H160.627V1.54545H152.627V9.54545ZM129.104 9.54545V1.54545H121.104V9.54545H129.104ZM121.105 46.4163C121.11 47.265 120.99 47.8178 120.882 48.1344C120.778 48.4386 120.682 48.5401 120.675 48.5479C120.672 48.5505 120.654 48.5775 120.548 48.6198C120.428 48.6677 120.123 48.7614 119.559 48.7614V64.7614C124.333 64.7614 128.989 63.1075 132.399 59.4351C135.756 55.8204 137.136 51.084 137.104 46.311L121.105 46.4163ZM119.559 48.7614C118.96 48.7614 118.679 48.6632 118.614 48.6364C118.569 48.6182 118.603 48.6294 118.634 48.6634C118.698 48.7348 118.196 48.2307 118.184 46.311L102.184 46.4163C102.214 50.9739 103.439 55.6686 106.699 59.3196C110.076 63.1017 114.742 64.7614 119.559 64.7614V48.7614ZM118.184 46.3636V9.54545H102.184V46.3636H118.184ZM110.184 1.54545H86.6612V17.5455H110.184V1.54545ZM78.6612 9.54545V51.3068H94.6612V9.54545H78.6612ZM78.6613 51.3306C78.6875 60.1572 81.5025 68.315 87.0388 74.3547C92.6367 80.4614 100.527 83.8523 109.502 83.8523V67.8523C104.713 67.8523 101.204 66.1295 98.8333 63.5431C96.4009 60.8895 94.6775 56.7746 94.6612 51.283L78.6613 51.3306ZM109.502 83.8523C122.184 83.8523 133.071 77.1808 137.186 65.1445L122.046 59.9691C120.45 64.6374 116.337 67.8523 109.502 67.8523V83.8523ZM129.616 70.5568H130.298V54.5568H129.616V70.5568ZM122.298 62.5568V75H138.298V62.5568H122.298ZM130.298 83H152.627V67H130.298V83ZM160.627 75V9.54545H144.627V75H160.627ZM152.627 1.54545H129.104V17.5455H152.627V1.54545ZM121.104 9.54545V46.3636H137.104V9.54545H121.104ZM206.693 80.4545L199.111 77.9029L199.107 77.9158L206.693 80.4545ZM230.557 9.54545L238.139 12.0971L241.69 1.54545H230.557V9.54545ZM205.841 9.54545V1.54545H199.514L198.056 7.70172L205.841 9.54545ZM195.102 54.8864V62.8864H201.429L202.887 56.7301L195.102 54.8864ZM194.42 54.8864L186.629 56.7023L188.071 62.8864H194.42V54.8864ZM183.852 9.54545L191.643 7.72947L190.202 1.54545H183.852V9.54545ZM159.307 9.54545V1.54545H148.172L151.725 12.098L159.307 9.54545ZM182.318 77.8977L189.671 81.0491L190.875 78.2408L189.9 75.3452L182.318 77.8977ZM181.807 79.0909L189.142 82.2839L189.151 82.2631L189.16 82.2423L181.807 79.0909ZM169.875 80.5398L172.538 72.9959L164.668 70.2184L162.225 78.1981L169.875 80.5398ZM164.761 97.2443L157.112 94.9026L154.949 101.968L161.82 104.684L164.761 97.2443ZM178.909 107.545C188.523 107.545 196.386 105.104 202.495 100.395C208.545 95.7325 212.129 89.4212 214.28 82.9933L199.107 77.9158C197.636 82.3118 195.552 85.5459 192.728 87.7225C189.962 89.8537 185.744 91.5455 178.909 91.5455V107.545ZM214.275 83.0062L238.139 12.0971L222.975 6.99377L199.111 77.9029L214.275 83.0062ZM230.557 1.54545H205.841V17.5455H230.557V1.54545ZM198.056 7.70172L187.318 53.0426L202.887 56.7301L213.626 11.3892L198.056 7.70172ZM195.102 46.8864H194.42V62.8864H195.102V46.8864ZM202.212 53.0704L191.643 7.72947L176.061 11.3614L186.629 56.7023L202.212 53.0704ZM183.852 1.54545H159.307V17.5455H183.852V1.54545ZM151.725 12.098L174.736 80.4502L189.9 75.3452L166.889 6.99295L151.725 12.098ZM174.965 74.7464L174.454 75.9396L189.16 82.2423L189.671 81.0491L174.965 74.7464ZM174.472 75.8979C174.684 75.4094 175.138 74.7985 175.832 74.3617C176.447 73.9746 176.878 73.9587 176.784 73.9662C176.676 73.9749 176.265 73.9815 175.47 73.8289C174.694 73.6801 173.718 73.4126 172.538 72.9959L167.212 88.0837C170.467 89.2324 174.323 90.2146 178.062 89.9152C182.306 89.5751 186.899 87.4367 189.142 82.2839L174.472 75.8979ZM162.225 78.1981L157.112 94.9026L172.411 99.586L177.525 82.8815L162.225 78.1981ZM161.82 104.684C166.663 106.598 172.787 107.545 178.909 107.545V91.5455C174.207 91.5455 170.19 90.7879 167.703 89.8046L161.82 104.684ZM237.247 75H229.247V83H237.247V75ZM260.77 75V83H268.77V75H260.77ZM276.622 75H268.622V83H276.622V75ZM299.122 75V83H307.122V75H299.122ZM314.974 75H306.974V83H314.974V75ZM338.497 75V83H346.497V75H338.497ZM297.588 21.9886V29.9886H303.676L305.299 24.1213L297.588 21.9886ZM296.906 21.9886L289.02 23.331L290.153 29.9886H296.906V21.9886ZM260.259 21.9886V29.9886H266.025L267.848 24.5185L260.259 21.9886ZM259.577 21.9886H251.577V29.9886H259.577V21.9886ZM259.577 9.54545H267.577V1.54545H259.577V9.54545ZM237.247 9.54545V1.54545H229.247V9.54545H237.247ZM237.247 83H260.77V67H237.247V83ZM268.77 75V36.8182H252.77V75H268.77ZM268.77 36.8182C268.77 35.2812 269.17 35.014 268.957 35.2641C268.846 35.3947 268.681 35.5185 268.514 35.5904C268.363 35.6561 268.361 35.6136 268.611 35.6136V19.6136C264.127 19.6136 259.831 21.3062 256.78 24.8851C253.861 28.3098 252.77 32.645 252.77 36.8182H268.77ZM268.611 35.6136C268.86 35.6136 268.888 35.6563 268.778 35.6092C268.656 35.5573 268.523 35.4625 268.43 35.3569C268.236 35.1362 268.622 35.3882 268.622 36.8182H284.622C284.622 32.538 283.431 28.1876 280.446 24.7923C277.364 21.2869 273.074 19.6136 268.611 19.6136V35.6136ZM268.622 36.8182V75H284.622V36.8182H268.622ZM276.622 83H299.122V67H276.622V83ZM307.122 75V36.8182H291.122V75H307.122ZM307.122 36.8182C307.122 35.2812 307.522 35.014 307.309 35.2641C307.198 35.3947 307.033 35.5185 306.867 35.5904C306.715 35.6561 306.714 35.6136 306.963 35.6136V19.6136C302.479 19.6136 298.183 21.3062 295.132 24.8851C292.213 28.3098 291.122 32.645 291.122 36.8182H307.122ZM306.963 35.6136C307.213 35.6136 307.24 35.6563 307.13 35.6092C307.008 35.5573 306.875 35.4625 306.782 35.3569C306.588 35.1362 306.974 35.3882 306.974 36.8182H322.974C322.974 32.538 321.784 28.1876 318.799 24.7923C315.717 21.2869 311.426 19.6136 306.963 19.6136V35.6136ZM306.974 36.8182V75H322.974V36.8182H306.974ZM314.974 83H338.497V67H314.974V83ZM346.497 75V30.8523H330.497V75H346.497ZM346.497 30.8523C346.497 22.4097 343.762 14.77 338.39 9.19047C332.997 3.58899 325.547 0.693182 317.361 0.693182V16.6932C321.703 16.6932 324.821 18.1653 326.864 20.2875C328.928 22.4317 330.497 25.8716 330.497 30.8523H346.497ZM317.361 0.693182C304.858 0.693182 293.252 7.65501 289.878 19.8559L305.299 24.1213C306.356 20.2995 310.432 16.6932 317.361 16.6932V0.693182ZM297.588 13.9886H296.906V29.9886H297.588V13.9886ZM304.793 20.6462C302.626 7.91396 291.152 0.693182 279.009 0.693182V16.6932C285.274 16.6932 288.46 20.0406 289.02 23.331L304.793 20.6462ZM279.009 0.693182C266.526 0.693182 256.497 7.97462 252.669 19.4588L267.848 24.5185C269.474 19.639 273.338 16.6932 279.009 16.6932V0.693182ZM260.259 13.9886H259.577V29.9886H260.259V13.9886ZM267.577 21.9886V9.54545H251.577V21.9886H267.577ZM259.577 1.54545H237.247V17.5455H259.577V1.54545ZM229.247 9.54545V75H245.247V9.54545H229.247ZM387.258 65.7955V57.7955H382.489L380.221 61.9905L387.258 65.7955ZM387.769 65.7955H395.769V57.7955H387.769V65.7955ZM387.769 75H379.769V83H387.769V75ZM409.758 75V83H417.758V75H409.758ZM349.587 30.8523L341.606 30.3107L341.026 38.8523H349.587V30.8523ZM371.235 30.8523V38.8523H378.215L379.161 31.9369L371.235 30.8523ZM371.065 36.1364L371.644 44.1154L371.652 44.1148L371.065 36.1364ZM377.031 48.75L378.266 56.6541L378.277 56.6524L378.287 56.6506L377.031 48.75ZM386.406 46.3636H394.406V34.3954L383.347 38.9715L386.406 46.3636ZM368.337 84.0227C373.473 84.0227 378.567 83.153 383.185 80.7622C387.9 78.3217 391.617 74.5537 394.295 69.6004L380.221 61.9905C378.936 64.3668 377.454 65.7124 375.83 66.5531C374.11 67.4436 371.724 68.0227 368.337 68.0227V84.0227ZM387.258 73.7955H387.769V57.7955H387.258V73.7955ZM379.769 65.7955V75H395.769V65.7955H379.769ZM387.769 83H409.758V67H387.769V83ZM417.758 75V30.1705H401.758V75H417.758ZM417.758 30.1705C417.758 21.3444 413.49 13.6821 406.451 8.46594C399.544 3.34727 390.202 0.693182 379.587 0.693182V16.6932C387.68 16.6932 393.424 18.7266 396.925 21.321C400.294 23.8179 401.758 26.8943 401.758 30.1705H417.758ZM379.587 0.693182C368.438 0.693182 359.206 3.61864 352.494 9.10367C345.722 14.6376 342.151 22.2771 341.606 30.3107L357.569 31.3939C357.834 27.4956 359.483 24.0556 362.618 21.4929C365.814 18.8814 371.177 16.6932 379.587 16.6932V0.693182ZM349.587 38.8523H371.235V22.8523H349.587V38.8523ZM379.161 31.9369C379.18 31.802 379.183 31.9252 379.04 32.1773C378.887 32.445 378.665 32.6855 378.432 32.8525C378.218 33.006 378.111 33.0149 378.233 32.9826C378.364 32.9478 378.686 32.8864 379.246 32.8864V16.8864C375.968 16.8864 372.278 17.5774 369.109 19.8499C365.73 22.2724 363.845 25.8474 363.309 29.7676L379.161 31.9369ZM379.246 32.8864C380.201 32.8864 380.125 33.1221 379.583 32.7295C379.27 32.5027 378.886 32.116 378.598 31.5536C378.308 30.9879 378.235 30.4787 378.235 30.1705H394.235C394.235 25.8847 392.268 22.1606 388.967 19.7705C385.953 17.5881 382.383 16.8864 379.246 16.8864V32.8864ZM378.235 30.1705V30.3409H394.235V30.1705H378.235ZM378.235 30.3409C378.235 29.6736 378.478 28.5289 379.334 27.5293C380.014 26.7348 380.571 26.6466 380.055 26.8331C379.568 27.0091 378.611 27.2574 376.909 27.5077C375.249 27.7519 373.145 27.9615 370.477 28.158L371.652 44.1148C377.029 43.7188 381.889 43.1824 385.491 41.8814C387.393 41.1943 389.68 40.0461 391.487 37.9359C393.47 35.6206 394.235 32.9046 394.235 30.3409H378.235ZM370.486 28.1573C363.014 28.6994 355.224 30.5266 349.143 35.1457C342.638 40.0868 339.031 47.5043 339.031 56.9318H355.031C355.031 51.9986 356.686 49.5084 358.821 47.887C361.379 45.9435 365.607 44.5534 371.644 44.1154L370.486 28.1573ZM339.031 56.9318C339.031 65.3811 341.963 72.5813 347.856 77.5058C353.521 82.2402 360.91 84.0227 368.337 84.0227V68.0227C363.236 68.0227 359.972 66.7797 358.116 65.2286C356.487 63.8675 355.031 61.5223 355.031 56.9318H339.031ZM376.008 53.1932C375.196 53.1932 375.429 52.9836 376.047 53.4702C376.384 53.7364 376.716 54.1269 376.941 54.6101C377.162 55.0835 377.19 55.4472 377.19 55.5682H361.19C361.19 59.6691 362.877 63.4649 366.147 66.0397C369.172 68.4226 372.814 69.1932 376.008 69.1932V53.1932ZM377.19 55.5682C377.19 55.6835 377.166 55.9637 377.016 56.3189C376.861 56.6844 376.648 56.9501 376.484 57.1013C376.337 57.2365 376.324 57.1941 376.602 57.0773C376.887 56.9579 377.413 56.7873 378.266 56.6541L375.796 40.8459C372.125 41.4194 368.478 42.7234 365.646 45.3313C362.611 48.1254 361.19 51.8042 361.19 55.5682H377.19ZM378.287 56.6506C382.317 56.0095 386.166 55.1207 389.464 53.7558L383.347 38.9715C381.702 39.652 379.244 40.2973 375.774 40.8494L378.287 56.6506ZM378.406 46.3636V51.8182H394.406V46.3636H378.406ZM378.406 51.8182C378.406 52.1492 378.342 52.2883 378.324 52.3253C378.301 52.373 378.249 52.4594 378.108 52.5763C377.779 52.8477 377.046 53.1932 376.008 53.1932V69.1932C384.258 69.1932 394.406 63.5617 394.406 51.8182H378.406Z" fill="#D1B7E6"/>
</svg>
